<?xml version="1.0" encoding="UTF-8" standalone="no"?>
<!DOCTYPE svg PUBLIC "-//W3C//DTD SVG 1.1//EN"
 "http://www.w3.org/Graphics/SVG/1.1/DTD/svg11.dtd">
<!-- Generated by graphviz version 5.0.0 (20220707.1540)
 -->
<!-- Title: OpenShift Certificates Pages: 1 -->
<svg width="6334pt" height="813pt"
 viewBox="0.00 0.00 6333.57 813.33" xmlns="http://www.w3.org/2000/svg" xmlns:xlink="http://www.w3.org/1999/xlink">
<g id="graph0" class="graph" transform="scale(1 1) rotate(0) translate(4 809.33)">
<title>OpenShift Certificates</title>
<polygon fill="white" stroke="transparent" points="-4,4 -4,-809.33 6329.57,-809.33 6329.57,4 -4,4"/>
<!-- 0 -->
<g id="node1" class="node">
<title>0</title>
<ellipse fill="white" stroke="black" cx="241.83" cy="-766.44" rx="241.66" ry="38.78"/>
<text text-anchor="middle" x="241.83" y="-778.74" font-family="Times,serif" font-size="14.00">certkeypair/Microsoft ECC Root Certificate Authority 2017</text>
</g>
<!-- 16 -->
<g id="node17" class="node">
<title>16</title>
<ellipse fill="#fda172" stroke="black" cx="3213.83" cy="-345.78" rx="523.02" ry="345.55"/>
<text text-anchor="middle" x="3213.83" y="-575.08" font-family="Times,serif" font-size="14.00">cabundle/proxy&#45;ca</text>
<text text-anchor="middle" x="3213.83" y="-544.08" font-family="Times,serif" font-size="14.00">configmaps/trusted&#45;ca&#45;bundle &#45;nopenshift&#45;apiserver</text>
<text text-anchor="middle" x="3213.83" y="-529.08" font-family="Times,serif" font-size="14.00"> &#160;&#160;&#160;configmaps/trusted&#45;ca&#45;bundle &#45;nopenshift&#45;apiserver&#45;operator</text>
<text text-anchor="middle" x="3213.83" y="-514.08" font-family="Times,serif" font-size="14.00"> &#160;&#160;&#160;configmaps/v4&#45;0&#45;config&#45;system&#45;trusted&#45;ca&#45;bundle &#45;nopenshift&#45;authentication</text>
<text text-anchor="middle" x="3213.83" y="-499.08" font-family="Times,serif" font-size="14.00"> &#160;&#160;&#160;configmaps/trusted&#45;ca&#45;bundle &#45;nopenshift&#45;authentication&#45;operator</text>
<text text-anchor="middle" x="3213.83" y="-484.08" font-family="Times,serif" font-size="14.00"> &#160;&#160;&#160;configmaps/ccm&#45;trusted&#45;ca &#45;nopenshift&#45;cloud&#45;controller&#45;manager</text>
<text text-anchor="middle" x="3213.83" y="-469.08" font-family="Times,serif" font-size="14.00"> &#160;&#160;&#160;configmaps/cco&#45;trusted&#45;ca &#45;nopenshift&#45;cloud&#45;credential&#45;operator</text>
<text text-anchor="middle" x="3213.83" y="-454.08" font-family="Times,serif" font-size="14.00"> &#160;&#160;&#160;configmaps/trusted&#45;ca &#45;nopenshift&#45;cloud&#45;network&#45;config&#45;controller</text>
<text text-anchor="middle" x="3213.83" y="-439.08" font-family="Times,serif" font-size="14.00"> &#160;&#160;&#160;configmaps/aws&#45;ebs&#45;csi&#45;driver&#45;trusted&#45;ca&#45;bundle &#45;nopenshift&#45;cluster&#45;csi&#45;drivers</text>
<text text-anchor="middle" x="3213.83" y="-424.08" font-family="Times,serif" font-size="14.00"> &#160;&#160;&#160;configmaps/trusted&#45;ca &#45;nopenshift&#45;cluster&#45;node&#45;tuning&#45;operator</text>
<text text-anchor="middle" x="3213.83" y="-409.08" font-family="Times,serif" font-size="14.00"> &#160;&#160;&#160;configmaps/trusted&#45;ca&#45;bundle &#45;nopenshift&#45;config&#45;managed</text>
<text text-anchor="middle" x="3213.83" y="-394.08" font-family="Times,serif" font-size="14.00"> &#160;&#160;&#160;configmaps/trusted&#45;ca&#45;bundle &#45;nopenshift&#45;console</text>
<text text-anchor="middle" x="3213.83" y="-379.08" font-family="Times,serif" font-size="14.00"> &#160;&#160;&#160;configmaps/openshift&#45;global&#45;ca &#45;nopenshift&#45;controller&#45;manager</text>
<text text-anchor="middle" x="3213.83" y="-364.08" font-family="Times,serif" font-size="14.00"> &#160;&#160;&#160;configmaps/trusted&#45;ca &#45;nopenshift&#45;image&#45;registry</text>
<text text-anchor="middle" x="3213.83" y="-349.08" font-family="Times,serif" font-size="14.00"> &#160;&#160;&#160;configmaps/trusted&#45;ca &#45;nopenshift&#45;ingress&#45;operator</text>
<text text-anchor="middle" x="3213.83" y="-334.08" font-family="Times,serif" font-size="14.00"> &#160;&#160;&#160;configmaps/trusted&#45;ca&#45;bundle &#45;nopenshift&#45;insights</text>
<text text-anchor="middle" x="3213.83" y="-319.08" font-family="Times,serif" font-size="14.00"> &#160;&#160;&#160;configmaps/trusted&#45;ca&#45;bundle &#45;nopenshift&#45;kube&#45;apiserver</text>
<text text-anchor="middle" x="3213.83" y="-304.08" font-family="Times,serif" font-size="14.00"> &#160;&#160;&#160;configmaps/trusted&#45;ca&#45;bundle &#45;nopenshift&#45;kube&#45;controller&#45;manager</text>
<text text-anchor="middle" x="3213.83" y="-289.08" font-family="Times,serif" font-size="14.00"> &#160;&#160;&#160;configmaps/cbo&#45;trusted&#45;ca &#45;nopenshift&#45;machine&#45;api</text>
<text text-anchor="middle" x="3213.83" y="-274.08" font-family="Times,serif" font-size="14.00"> &#160;&#160;&#160;configmaps/mao&#45;trusted&#45;ca &#45;nopenshift&#45;machine&#45;api</text>
<text text-anchor="middle" x="3213.83" y="-259.08" font-family="Times,serif" font-size="14.00"> &#160;&#160;&#160;configmaps/marketplace&#45;trusted&#45;ca &#45;nopenshift&#45;marketplace</text>
<text text-anchor="middle" x="3213.83" y="-244.08" font-family="Times,serif" font-size="14.00"> &#160;&#160;&#160;configmaps/alertmanager&#45;trusted&#45;ca&#45;bundle &#45;nopenshift&#45;monitoring</text>
<text text-anchor="middle" x="3213.83" y="-229.08" font-family="Times,serif" font-size="14.00"> &#160;&#160;&#160;configmaps/alertmanager&#45;trusted&#45;ca&#45;bundle&#45;2rsonso43rc5p &#45;nopenshift&#45;monitoring</text>
<text text-anchor="middle" x="3213.83" y="-214.08" font-family="Times,serif" font-size="14.00"> &#160;&#160;&#160;configmaps/prometheus&#45;trusted&#45;ca&#45;bundle &#45;nopenshift&#45;monitoring</text>
<text text-anchor="middle" x="3213.83" y="-199.08" font-family="Times,serif" font-size="14.00"> &#160;&#160;&#160;configmaps/prometheus&#45;trusted&#45;ca&#45;bundle&#45;2rsonso43rc5p &#45;nopenshift&#45;monitoring</text>
<text text-anchor="middle" x="3213.83" y="-184.08" font-family="Times,serif" font-size="14.00"> &#160;&#160;&#160;configmaps/telemeter&#45;trusted&#45;ca&#45;bundle &#45;nopenshift&#45;monitoring</text>
<text text-anchor="middle" x="3213.83" y="-169.08" font-family="Times,serif" font-size="14.00"> &#160;&#160;&#160;configmaps/telemeter&#45;trusted&#45;ca&#45;bundle&#45;2rsonso43rc5p &#45;nopenshift&#45;monitoring</text>
<text text-anchor="middle" x="3213.83" y="-154.08" font-family="Times,serif" font-size="14.00"> &#160;&#160;&#160;configmaps/thanos&#45;querier&#45;trusted&#45;ca&#45;bundle &#45;nopenshift&#45;monitoring</text>
<text text-anchor="middle" x="3213.83" y="-139.08" font-family="Times,serif" font-size="14.00"> &#160;&#160;&#160;configmaps/thanos&#45;querier&#45;trusted&#45;ca&#45;bundle&#45;2rsonso43rc5p &#45;nopenshift&#45;monitoring</text>
<text text-anchor="middle" x="3213.83" y="-124.08" font-family="Times,serif" font-size="14.00"> &#160;&#160;&#160;file:///etc/kubernetes/static&#45;pod&#45;resources/kube&#45;apiserver&#45;certs/configmaps/trusted&#45;ca&#45;bundle/ca&#45;bundle.crt/ca&#45;bundle.crt</text>
<text text-anchor="middle" x="3213.83" y="-109.08" font-family="Times,serif" font-size="14.00"> &#160;&#160;&#160;file:///etc/kubernetes/static&#45;pod&#45;resources/kube&#45;controller&#45;manager&#45;certs/configmaps/trusted&#45;ca&#45;bundle/ca&#45;bundle.crt/ca&#45;bundle.crt</text>
</g>
<!-- 0&#45;&gt;16 -->
<g id="edge1" class="edge">
<title>0&#45;&gt;16</title>
<path fill="none" stroke="black" d="M414.28,-739.16C440.59,-735.22 467.43,-731.25 492.83,-727.55 1257.25,-616.37 2143.41,-493.48 2691.38,-418.18"/>
<polygon fill="black" stroke="black" points="2692.01,-421.63 2701.44,-416.8 2691.05,-414.69 2692.01,-421.63"/>
</g>
<!-- 1 -->
<g id="node2" class="node">
<title>1</title>
<ellipse fill="white" stroke="black" cx="761.83" cy="-766.44" rx="260.43" ry="38.78"/>
<text text-anchor="middle" x="761.83" y="-778.74" font-family="Times,serif" font-size="14.00">certkeypair/Trustwave Global ECC P256 Certification Authority</text>
</g>
<!-- 1&#45;&gt;16 -->
<g id="edge2" class="edge">
<title>1&#45;&gt;16</title>
<path fill="none" stroke="black" d="M929.88,-736.75C1288.45,-675.52 2141.08,-529.94 2697.08,-435.01"/>
<polygon fill="black" stroke="black" points="2698.02,-438.4 2707.29,-433.26 2696.84,-431.5 2698.02,-438.4"/>
</g>
<!-- 2 -->
<g id="node3" class="node">
<title>2</title>
<ellipse fill="white" stroke="black" cx="1256.83" cy="-766.44" rx="216.25" ry="38.78"/>
<text text-anchor="middle" x="1256.83" y="-778.74" font-family="Times,serif" font-size="14.00">certkeypair/Trustwave Global Certification Authority</text>
</g>
<!-- 2&#45;&gt;16 -->
<g id="edge3" class="edge">
<title>2&#45;&gt;16</title>
<path fill="none" stroke="black" d="M1393.28,-736.25C1660.9,-679 2266.85,-549.37 2706.32,-455.35"/>
<polygon fill="black" stroke="black" points="2707.3,-458.72 2716.35,-453.2 2705.84,-451.87 2707.3,-458.72"/>
</g>
<!-- 3 -->
<g id="node4" class="node">
<title>3</title>
<ellipse fill="white" stroke="black" cx="1719.83" cy="-766.44" rx="229.21" ry="38.78"/>
<text text-anchor="middle" x="1719.83" y="-778.74" font-family="Times,serif" font-size="14.00">certkeypair/NAVER Global Root Certification Authority</text>
</g>
<!-- 3&#45;&gt;16 -->
<g id="edge4" class="edge">
<title>3&#45;&gt;16</title>
<path fill="none" stroke="black" d="M1836.13,-732.85C2024.76,-679.99 2407.99,-572.6 2722.49,-484.47"/>
<polygon fill="black" stroke="black" points="2723.55,-487.8 2732.24,-481.73 2721.66,-481.06 2723.55,-487.8"/>
</g>
<!-- 4 -->
<g id="node5" class="node">
<title>4</title>
<ellipse fill="white" stroke="black" cx="2116.83" cy="-766.44" rx="149.81" ry="38.78"/>
<text text-anchor="middle" x="2116.83" y="-778.74" font-family="Times,serif" font-size="14.00">certkeypair/e&#45;Szigno Root CA 2017</text>
</g>
<!-- 4&#45;&gt;16 -->
<g id="edge5" class="edge">
<title>4&#45;&gt;16</title>
<path fill="none" stroke="black" d="M2199.73,-733.8C2317.78,-688.75 2543.13,-602.75 2751.47,-523.23"/>
<polygon fill="black" stroke="black" points="2752.97,-526.41 2761.07,-519.57 2750.47,-519.87 2752.97,-526.41"/>
</g>
<!-- 5 -->
<g id="node6" class="node">
<title>5</title>
<ellipse fill="white" stroke="black" cx="2419.83" cy="-766.44" rx="135.11" ry="38.78"/>
<text text-anchor="middle" x="2419.83" y="-778.74" font-family="Times,serif" font-size="14.00">certkeypair/Certum EC&#45;384 CA</text>
</g>
<!-- 5&#45;&gt;16 -->
<g id="edge6" class="edge">
<title>5&#45;&gt;16</title>
<path fill="none" stroke="black" d="M2483.13,-732.06C2553.47,-694.97 2673.38,-631.75 2795.95,-567.12"/>
<polygon fill="black" stroke="black" points="2797.95,-570.02 2805.16,-562.26 2794.68,-563.83 2797.95,-570.02"/>
</g>
<!-- 6 -->
<g id="node7" class="node">
<title>6</title>
<ellipse fill="white" stroke="black" cx="2813.83" cy="-766.44" rx="241.25" ry="38.78"/>
<text text-anchor="middle" x="2813.83" y="-778.74" font-family="Times,serif" font-size="14.00">certkeypair/Microsoft RSA Root Certificate Authority 2017</text>
</g>
<!-- 6&#45;&gt;16 -->
<g id="edge7" class="edge">
<title>6&#45;&gt;16</title>
<path fill="none" stroke="black" d="M2849.68,-727.92C2869.91,-706.74 2897.28,-678.1 2927.97,-645.98"/>
<polygon fill="black" stroke="black" points="2930.61,-648.28 2934.98,-638.63 2925.55,-643.45 2930.61,-648.28"/>
</g>
<!-- 7 -->
<g id="node8" class="node">
<title>7</title>
<ellipse fill="white" stroke="black" cx="3213.83" cy="-766.44" rx="140.93" ry="38.78"/>
<text text-anchor="middle" x="3213.83" y="-778.74" font-family="Times,serif" font-size="14.00">certkeypair/GlobalSign Root R46</text>
</g>
<!-- 7&#45;&gt;16 -->
<g id="edge8" class="edge">
<title>7&#45;&gt;16</title>
<path fill="none" stroke="black" d="M3213.83,-727.55C3213.83,-719.86 3213.83,-711.19 3213.83,-701.74"/>
<polygon fill="black" stroke="black" points="3217.33,-701.61 3213.83,-691.61 3210.33,-701.61 3217.33,-701.61"/>
</g>
<!-- 8 -->
<g id="node9" class="node">
<title>8</title>
<ellipse fill="white" stroke="black" cx="3527.83" cy="-766.44" rx="154.71" ry="38.78"/>
<text text-anchor="middle" x="3527.83" y="-778.74" font-family="Times,serif" font-size="14.00">certkeypair/Certum Trusted Root CA</text>
</g>
<!-- 8&#45;&gt;16 -->
<g id="edge9" class="edge">
<title>8&#45;&gt;16</title>
<path fill="none" stroke="black" d="M3499.69,-727.92C3486.85,-710.8 3470.36,-688.82 3451.79,-664.06"/>
<polygon fill="black" stroke="black" points="3454.49,-661.83 3445.69,-655.93 3448.89,-666.03 3454.49,-661.83"/>
</g>
<!-- 9 -->
<g id="node10" class="node">
<title>9</title>
<ellipse fill="white" stroke="black" cx="3870.83" cy="-766.44" rx="169.91" ry="38.78"/>
<text text-anchor="middle" x="3870.83" y="-778.74" font-family="Times,serif" font-size="14.00">certkeypair/ANF Secure Server Root CA</text>
</g>
<!-- 9&#45;&gt;16 -->
<g id="edge10" class="edge">
<title>9&#45;&gt;16</title>
<path fill="none" stroke="black" d="M3814.53,-729.57C3763.55,-697.08 3683.58,-646.12 3598.42,-591.85"/>
<polygon fill="black" stroke="black" points="3600.21,-588.84 3589.9,-586.42 3596.45,-594.75 3600.21,-588.84"/>
</g>
<!-- 10 -->
<g id="node11" class="node">
<title>10</title>
<ellipse fill="white" stroke="black" cx="4314.83" cy="-766.44" rx="256.86" ry="38.78"/>
<text text-anchor="middle" x="4314.83" y="-778.74" font-family="Times,serif" font-size="14.00">certkeypair/AC RAIZ FNMT&#45;RCM SERVIDORES SEGUROS</text>
</g>
<!-- 10&#45;&gt;16 -->
<g id="edge11" class="edge">
<title>10&#45;&gt;16</title>
<path fill="none" stroke="black" d="M4221.91,-730.11C4100.77,-684.04 3880.25,-600.19 3676.28,-522.63"/>
<polygon fill="black" stroke="black" points="3677.48,-519.34 3666.89,-519.06 3674.99,-525.88 3677.48,-519.34"/>
</g>
<!-- 11 -->
<g id="node12" class="node">
<title>11</title>
<ellipse fill="#c8fbcd" stroke="black" cx="6032.83" cy="-345.78" rx="228.29" ry="38.37"/>
<text text-anchor="middle" x="6032.83" y="-357.58" font-family="Times,serif" font-size="14.00">certkeypair/::1658</text>
<text text-anchor="middle" x="6032.83" y="-326.58" font-family="Times,serif" font-size="14.00">secret/pprof&#45;cert &#45;nopenshift&#45;operator&#45;lifecycle&#45;manager</text>
</g>
<!-- 12 -->
<g id="node13" class="node">
<title>12</title>
<ellipse fill="#fffdb8" stroke="black" cx="6032.83" cy="-766.44" rx="292.98" ry="38.37"/>
<text text-anchor="middle" x="6032.83" y="-778.24" font-family="Times,serif" font-size="14.00">certkeypair/::7981676500072753307</text>
<text text-anchor="middle" x="6032.83" y="-747.24" font-family="Times,serif" font-size="14.00">secret/packageserver&#45;service&#45;cert &#45;nopenshift&#45;operator&#45;lifecycle&#45;manager</text>
</g>
<!-- 12&#45;&gt;11 -->
<g id="edge12" class="edge">
<title>12&#45;&gt;11</title>
<path fill="none" stroke="black" d="M6032.83,-727.92C6032.83,-651.52 6032.83,-478.07 6032.83,-394.09"/>
<polygon fill="black" stroke="black" points="6036.33,-394.06 6032.83,-384.06 6029.33,-394.06 6036.33,-394.06"/>
</g>
<!-- 12&#45;&gt;16 -->
<g id="edge13" class="edge">
<title>12&#45;&gt;16</title>
<path fill="none" stroke="black" d="M5843.22,-737.28C5417.1,-674 4371.32,-518.68 3734.49,-424.1"/>
<polygon fill="black" stroke="black" points="3734.62,-420.58 3724.21,-422.57 3733.59,-427.51 3734.62,-420.58"/>
</g>
<!-- 13 -->
<g id="node14" class="node">
<title>13</title>
<ellipse fill="white" stroke="black" cx="4849.83" cy="-766.44" rx="260.43" ry="38.78"/>
<text text-anchor="middle" x="4849.83" y="-778.74" font-family="Times,serif" font-size="14.00">certkeypair/Trustwave Global ECC P384 Certification Authority</text>
</g>
<!-- 13&#45;&gt;16 -->
<g id="edge14" class="edge">
<title>13&#45;&gt;16</title>
<path fill="none" stroke="black" d="M4721.46,-732.59C4506.34,-677.54 4062.17,-563.87 3711.38,-474.1"/>
<polygon fill="black" stroke="black" points="3712.11,-470.68 3701.55,-471.59 3710.37,-477.46 3712.11,-470.68"/>
</g>
<!-- 14 -->
<g id="node15" class="node">
<title>14</title>
<ellipse fill="white" stroke="black" cx="5267.83" cy="-766.44" rx="140.01" ry="38.78"/>
<text text-anchor="middle" x="5267.83" y="-778.74" font-family="Times,serif" font-size="14.00">certkeypair/GlobalSign Root E46</text>
</g>
<!-- 14&#45;&gt;16 -->
<g id="edge15" class="edge">
<title>14&#45;&gt;16</title>
<path fill="none" stroke="black" d="M5167.41,-739.15C5151.2,-735.12 5134.58,-731.12 5118.83,-727.55 4649.56,-621.06 4111.64,-514.99 3727.35,-441.96"/>
<polygon fill="black" stroke="black" points="3727.93,-438.5 3717.45,-440.08 3726.62,-445.38 3727.93,-438.5"/>
</g>
<!-- 15 -->
<g id="node16" class="node">
<title>15</title>
<ellipse fill="white" stroke="black" cx="5573.83" cy="-766.44" rx="147.57" ry="38.78"/>
<text text-anchor="middle" x="5573.83" y="-778.74" font-family="Times,serif" font-size="14.00">certkeypair/GLOBALTRUST 2020</text>
</g>
<!-- 15&#45;&gt;16 -->
<g id="edge16" class="edge">
<title>15&#45;&gt;16</title>
<path fill="none" stroke="black" d="M5468.48,-739.01C5451.26,-734.98 5433.58,-731.02 5416.83,-727.55 4843.59,-608.97 4181.16,-497.95 3733.6,-426.74"/>
<polygon fill="black" stroke="black" points="3733.82,-423.23 3723.39,-425.12 3732.72,-430.14 3733.82,-423.23"/>
</g>
</g>
</svg>
