<?xml version="1.0" encoding="UTF-8" standalone="no"?>
<!DOCTYPE svg PUBLIC "-//W3C//DTD SVG 1.1//EN"
 "http://www.w3.org/Graphics/SVG/1.1/DTD/svg11.dtd">
<!-- Generated by graphviz version 5.0.0 (20220707.1540)
 -->
<!-- Title: OpenShift Certificates Pages: 1 -->
<svg width="15430pt" height="606pt"
 viewBox="0.00 0.00 15430.35 606.09" xmlns="http://www.w3.org/2000/svg" xmlns:xlink="http://www.w3.org/1999/xlink">
<g id="graph0" class="graph" transform="scale(1 1) rotate(0) translate(4 602.09)">
<title>OpenShift Certificates</title>
<polygon fill="white" stroke="transparent" points="-4,4 -4,-602.09 15426.35,-602.09 15426.35,4 -4,4"/>
<!-- 0 -->
<g id="node1" class="node">
<title>0</title>
<ellipse fill="#c7bfff" stroke="black" cx="4329.85" cy="-559.9" rx="280.94" ry="38.37"/>
<text text-anchor="middle" x="4329.85" y="-571.7" font-family="Times,serif" font-size="14.00">certkeypair/kube&#45;controller&#45;manager&#45;csr&#45;signer&#45;signer</text>
<text text-anchor="middle" x="4329.85" y="-540.7" font-family="Times,serif" font-size="14.00">secret/csr&#45;signer&#45;signer &#45;nopenshift&#45;kube&#45;controller&#45;manager&#45;operator</text>
</g>
<!-- 10 -->
<g id="node11" class="node">
<title>10</title>
<ellipse fill="#c8fbcd" stroke="black" cx="5853.85" cy="-426.32" rx="527.5" ry="38.37"/>
<text text-anchor="middle" x="5853.85" y="-438.12" font-family="Times,serif" font-size="14.00">certkeypair/system:serviceaccount:openshift&#45;oauth&#45;apiserver:openshift&#45;authenticator::130808046015838906557527779576925463776</text>
<text text-anchor="middle" x="5853.85" y="-407.12" font-family="Times,serif" font-size="14.00">secret/openshift&#45;authenticator&#45;certs &#45;nopenshift&#45;oauth&#45;apiserver</text>
</g>
<!-- 0&#45;&gt;10 -->
<g id="edge1" class="edge">
<title>0&#45;&gt;10</title>
<path fill="none" stroke="black" d="M4580.54,-542.7C4780.16,-529.22 5066.6,-508.6 5316.85,-485.72 5398.91,-478.22 5487.9,-468.99 5569.4,-460.1"/>
<polygon fill="black" stroke="black" points="5570.25,-463.52 5579.81,-458.96 5569.49,-456.57 5570.25,-463.52"/>
</g>
<!-- 11 -->
<g id="node12" class="node">
<title>11</title>
<ellipse fill="#c8fbcd" stroke="black" cx="6882.85" cy="-426.32" rx="483.82" ry="38.37"/>
<text text-anchor="middle" x="6882.85" y="-438.12" font-family="Times,serif" font-size="14.00">certkeypair/system:serviceaccount:openshift&#45;monitoring:prometheus&#45;k8s::221866075839644692910412558908513329039</text>
<text text-anchor="middle" x="6882.85" y="-407.12" font-family="Times,serif" font-size="14.00">secret/metrics&#45;client&#45;certs &#45;nopenshift&#45;monitoring</text>
</g>
<!-- 0&#45;&gt;11 -->
<g id="edge2" class="edge">
<title>0&#45;&gt;11</title>
<path fill="none" stroke="black" d="M4609.45,-556.29C5006.18,-550.93 5754.98,-534.66 6390.85,-485.72 6470.43,-479.6 6556.95,-470.24 6634.93,-460.8"/>
<polygon fill="black" stroke="black" points="6635.38,-464.27 6644.88,-459.59 6634.53,-457.32 6635.38,-464.27"/>
</g>
<!-- 12 -->
<g id="node13" class="node">
<title>12</title>
<ellipse fill="#c7bfff" stroke="black" cx="2859.85" cy="-426.32" rx="818.66" ry="59.29"/>
<text text-anchor="middle" x="2859.85" y="-453.12" font-family="Times,serif" font-size="14.00">certkeypair/kube&#45;controller&#45;manager&#45;csr&#45;signer</text>
<text text-anchor="middle" x="2859.85" y="-422.12" font-family="Times,serif" font-size="14.00">secret/csr&#45;signer &#45;nopenshift&#45;kube&#45;controller&#45;manager</text>
<text text-anchor="middle" x="2859.85" y="-407.12" font-family="Times,serif" font-size="14.00"> &#160;&#160;&#160;secret/csr&#45;signer &#45;nopenshift&#45;kube&#45;controller&#45;manager&#45;operator</text>
<text text-anchor="middle" x="2859.85" y="-392.12" font-family="Times,serif" font-size="14.00"> &#160;&#160;&#160;file:///etc/kubernetes/static&#45;pod&#45;resources/kube&#45;controller&#45;manager&#45;certs/secrets/csr&#45;signer/tls.crt/tls.crt,file:///etc/kubernetes/static&#45;pod&#45;resources/kube&#45;controller&#45;manager&#45;certs/secrets/csr&#45;signer/tls.crt/tls.key</text>
</g>
<!-- 0&#45;&gt;12 -->
<g id="edge3" class="edge">
<title>0&#45;&gt;12</title>
<path fill="none" stroke="black" d="M4098.55,-538.2C3906.06,-520.97 3624.75,-495.79 3378.85,-473.78"/>
<polygon fill="black" stroke="black" points="3378.92,-470.27 3368.64,-472.87 3378.29,-477.24 3378.92,-470.27"/>
</g>
<!-- 15 -->
<g id="node16" class="node">
<title>15</title>
<ellipse fill="#fda172" stroke="black" cx="1693.85" cy="-426.32" rx="328.61" ry="38.37"/>
<text text-anchor="middle" x="1693.85" y="-438.12" font-family="Times,serif" font-size="14.00">cabundle/kube&#45;controller&#45;manager&#45;csr&#45;signer&#45;signer&#45;ca</text>
<text text-anchor="middle" x="1693.85" y="-407.12" font-family="Times,serif" font-size="14.00">configmaps/csr&#45;controller&#45;signer&#45;ca &#45;nopenshift&#45;kube&#45;controller&#45;manager&#45;operator</text>
</g>
<!-- 0&#45;&gt;15 -->
<g id="edge4" class="edge">
<title>0&#45;&gt;15</title>
<path fill="none" stroke="black" d="M4051.48,-554.89C3528.03,-546.55 2415.31,-524.76 2031.85,-485.72 1976.92,-480.13 1917.43,-470.92 1863.9,-461.46"/>
<polygon fill="black" stroke="black" points="1864.44,-458 1853.98,-459.69 1863.21,-464.89 1864.44,-458"/>
</g>
<!-- 16 -->
<g id="node17" class="node">
<title>16</title>
<ellipse fill="#fda172" stroke="black" cx="5090.85" cy="-165.46" rx="253.7" ry="38.37"/>
<text text-anchor="middle" x="5090.85" y="-177.26" font-family="Times,serif" font-size="14.00">cabundle/kube&#45;apiserver&#45;from&#45;installer&#45;client&#45;ca</text>
<text text-anchor="middle" x="5090.85" y="-146.26" font-family="Times,serif" font-size="14.00">configmaps/initial&#45;kube&#45;apiserver&#45;server&#45;ca &#45;nopenshift&#45;config</text>
</g>
<!-- 0&#45;&gt;16 -->
<g id="edge5" class="edge">
<title>0&#45;&gt;16</title>
<path fill="none" stroke="black" d="M4569.65,-540.05C4651.73,-529.08 4730.54,-512.02 4760.85,-485.72 4802.72,-449.39 4765.78,-411.41 4798.85,-366.93 4852.03,-295.41 4938.59,-240.62 5003.69,-206.54"/>
<polygon fill="black" stroke="black" points="5005.45,-209.57 5012.72,-201.87 5002.23,-203.35 5005.45,-209.57"/>
</g>
<!-- 21 -->
<g id="node22" class="node">
<title>21</title>
<ellipse fill="#fda172" stroke="black" cx="4329.85" cy="-165.46" rx="489.14" ry="91.43"/>
<text text-anchor="middle" x="4329.85" y="-214.76" font-family="Times,serif" font-size="14.00">cabundle/kube&#45;apiserver&#45;total&#45;client&#45;ca</text>
<text text-anchor="middle" x="4329.85" y="-183.76" font-family="Times,serif" font-size="14.00">configmaps/kube&#45;apiserver&#45;client&#45;ca &#45;nopenshift&#45;config&#45;managed</text>
<text text-anchor="middle" x="4329.85" y="-168.76" font-family="Times,serif" font-size="14.00"> &#160;&#160;&#160;configmaps/client&#45;ca &#45;nopenshift&#45;controller&#45;manager</text>
<text text-anchor="middle" x="4329.85" y="-153.76" font-family="Times,serif" font-size="14.00"> &#160;&#160;&#160;configmaps/client&#45;ca &#45;nopenshift&#45;kube&#45;apiserver</text>
<text text-anchor="middle" x="4329.85" y="-138.76" font-family="Times,serif" font-size="14.00"> &#160;&#160;&#160;configmaps/client&#45;ca &#45;nopenshift&#45;kube&#45;controller&#45;manager</text>
<text text-anchor="middle" x="4329.85" y="-123.76" font-family="Times,serif" font-size="14.00"> &#160;&#160;&#160;file:///etc/kubernetes/static&#45;pod&#45;resources/kube&#45;apiserver&#45;certs/configmaps/client&#45;ca/ca&#45;bundle.crt/ca&#45;bundle.crt</text>
<text text-anchor="middle" x="4329.85" y="-108.76" font-family="Times,serif" font-size="14.00"> &#160;&#160;&#160;file:///etc/kubernetes/static&#45;pod&#45;resources/kube&#45;controller&#45;manager&#45;certs/configmaps/client&#45;ca/ca&#45;bundle.crt/ca&#45;bundle.crt</text>
</g>
<!-- 0&#45;&gt;21 -->
<g id="edge6" class="edge">
<title>0&#45;&gt;21</title>
<path fill="none" stroke="black" d="M4329.85,-521.63C4329.85,-463.77 4329.85,-350.37 4329.85,-267.22"/>
<polygon fill="black" stroke="black" points="4333.35,-266.98 4329.85,-256.98 4326.35,-266.98 4333.35,-266.98"/>
</g>
<!-- 23 -->
<g id="node24" class="node">
<title>23</title>
<ellipse fill="#fda172" stroke="black" cx="492.85" cy="-165.46" rx="492.71" ry="165.43"/>
<text text-anchor="middle" x="492.85" y="-267.26" font-family="Times,serif" font-size="14.00">cabundle/kube&#45;controller&#45;manager&#45;csr&#45;ca</text>
<text text-anchor="middle" x="492.85" y="-236.26" font-family="Times,serif" font-size="14.00">configmaps/csr&#45;controller&#45;ca &#45;nopenshift&#45;config&#45;managed</text>
<text text-anchor="middle" x="492.85" y="-221.26" font-family="Times,serif" font-size="14.00"> &#160;&#160;&#160;configmaps/kubelet&#45;serving&#45;ca &#45;nopenshift&#45;config&#45;managed</text>
<text text-anchor="middle" x="492.85" y="-206.26" font-family="Times,serif" font-size="14.00"> &#160;&#160;&#160;configmaps/kubelet&#45;serving&#45;ca &#45;nopenshift&#45;kube&#45;apiserver</text>
<text text-anchor="middle" x="492.85" y="-191.26" font-family="Times,serif" font-size="14.00"> &#160;&#160;&#160;configmaps/kubelet&#45;serving&#45;ca&#45;3 &#45;nopenshift&#45;kube&#45;apiserver</text>
<text text-anchor="middle" x="492.85" y="-176.26" font-family="Times,serif" font-size="14.00"> &#160;&#160;&#160;configmaps/kubelet&#45;serving&#45;ca&#45;4 &#45;nopenshift&#45;kube&#45;apiserver</text>
<text text-anchor="middle" x="492.85" y="-161.26" font-family="Times,serif" font-size="14.00"> &#160;&#160;&#160;configmaps/kubelet&#45;serving&#45;ca&#45;5 &#45;nopenshift&#45;kube&#45;apiserver</text>
<text text-anchor="middle" x="492.85" y="-146.26" font-family="Times,serif" font-size="14.00"> &#160;&#160;&#160;configmaps/kubelet&#45;serving&#45;ca&#45;6 &#45;nopenshift&#45;kube&#45;apiserver</text>
<text text-anchor="middle" x="492.85" y="-131.26" font-family="Times,serif" font-size="14.00"> &#160;&#160;&#160;configmaps/kubelet&#45;serving&#45;ca&#45;7 &#45;nopenshift&#45;kube&#45;apiserver</text>
<text text-anchor="middle" x="492.85" y="-116.26" font-family="Times,serif" font-size="14.00"> &#160;&#160;&#160;configmaps/csr&#45;controller&#45;ca &#45;nopenshift&#45;kube&#45;controller&#45;manager&#45;operator</text>
<text text-anchor="middle" x="492.85" y="-101.26" font-family="Times,serif" font-size="14.00"> &#160;&#160;&#160;configmaps/csr&#45;signer&#45;ca &#45;nopenshift&#45;kube&#45;controller&#45;manager&#45;operator</text>
<text text-anchor="middle" x="492.85" y="-86.26" font-family="Times,serif" font-size="14.00"> &#160;&#160;&#160;configmaps/kubelet&#45;serving&#45;ca&#45;bundle &#45;nopenshift&#45;monitoring</text>
<text text-anchor="middle" x="492.85" y="-71.26" font-family="Times,serif" font-size="14.00"> &#160;&#160;&#160;file:///etc/kubernetes/static&#45;pod&#45;resources/kube&#45;apiserver&#45;pod&#45;3/configmaps/kubelet&#45;serving&#45;ca/ca&#45;bundle.crt/ca&#45;bundle.crt</text>
<text text-anchor="middle" x="492.85" y="-56.26" font-family="Times,serif" font-size="14.00"> &#160;&#160;&#160;file:///etc/kubernetes/static&#45;pod&#45;resources/kube&#45;apiserver&#45;pod&#45;7/configmaps/kubelet&#45;serving&#45;ca/ca&#45;bundle.crt/ca&#45;bundle.crt</text>
</g>
<!-- 0&#45;&gt;23 -->
<g id="edge7" class="edge">
<title>0&#45;&gt;23</title>
<path fill="none" stroke="black" d="M4049.64,-557.25C3359.58,-552.44 1615.3,-535.47 1355.85,-485.72 1161.65,-448.48 953.48,-372.61 790.26,-304.17"/>
<polygon fill="black" stroke="black" points="791.13,-300.74 780.56,-300.09 788.42,-307.2 791.13,-300.74"/>
</g>
<!-- 1 -->
<g id="node2" class="node">
<title>1</title>
<ellipse fill="white" stroke="black" cx="4554.85" cy="-426.32" rx="196.65" ry="38.78"/>
<text text-anchor="middle" x="4554.85" y="-438.62" font-family="Times,serif" font-size="14.00">certkeypair/kubelet&#45;bootstrap&#45;kubeconfig&#45;signer</text>
</g>
<!-- 1&#45;&gt;16 -->
<g id="edge8" class="edge">
<title>1&#45;&gt;16</title>
<path fill="none" stroke="black" d="M4663.73,-393.91C4714.66,-377.65 4775.48,-355.96 4827.85,-330.93 4901.26,-295.84 4979.63,-244.88 5031.53,-209.01"/>
<polygon fill="black" stroke="black" points="5033.73,-211.74 5039.95,-203.16 5029.74,-205.99 5033.73,-211.74"/>
</g>
<!-- 17 -->
<g id="node18" class="node">
<title>17</title>
<ellipse fill="#fda172" stroke="black" cx="3537.85" cy="-165.46" rx="284.01" ry="38.37"/>
<text text-anchor="middle" x="3537.85" y="-177.26" font-family="Times,serif" font-size="14.00">cabundle/kubelet&#45;bootstrap&#45;kubeconfig&#45;signer</text>
<text text-anchor="middle" x="3537.85" y="-146.26" font-family="Times,serif" font-size="14.00">configmaps/kubelet&#45;bootstrap&#45;kubeconfig &#45;nopenshift&#45;config&#45;managed</text>
</g>
<!-- 1&#45;&gt;17 -->
<g id="edge9" class="edge">
<title>1&#45;&gt;17</title>
<path fill="none" stroke="black" d="M4442.32,-394.41C4401.23,-384.19 4354.21,-373.7 4310.85,-366.93 4099.92,-333.97 4036.27,-392.49 3831.85,-330.93 3743.7,-304.38 3652.79,-248.29 3595.85,-209.03"/>
<polygon fill="black" stroke="black" points="3597.56,-205.96 3587.35,-203.13 3593.57,-211.71 3597.56,-205.96"/>
</g>
<!-- 1&#45;&gt;21 -->
<g id="edge10" class="edge">
<title>1&#45;&gt;21</title>
<path fill="none" stroke="black" d="M4522.38,-387.96C4494.08,-355.4 4451.77,-306.73 4414.02,-263.29"/>
<polygon fill="black" stroke="black" points="4416.47,-260.78 4407.27,-255.53 4411.19,-265.37 4416.47,-260.78"/>
</g>
<!-- 2 -->
<g id="node3" class="node">
<title>2</title>
<ellipse fill="#c7bfff" stroke="black" cx="3998.85" cy="-426.32" rx="302.78" ry="38.37"/>
<text text-anchor="middle" x="3998.85" y="-438.12" font-family="Times,serif" font-size="14.00">certkeypair/kube&#45;apiserver&#45;to&#45;kubelet&#45;signer</text>
<text text-anchor="middle" x="3998.85" y="-407.12" font-family="Times,serif" font-size="14.00">secret/kube&#45;apiserver&#45;to&#45;kubelet&#45;signer &#45;nopenshift&#45;kube&#45;apiserver&#45;operator</text>
</g>
<!-- 3 -->
<g id="node4" class="node">
<title>3</title>
<ellipse fill="#c8fbcd" stroke="black" cx="2463.85" cy="-165.46" rx="771.41" ry="48.58"/>
<text text-anchor="middle" x="2463.85" y="-184.76" font-family="Times,serif" font-size="14.00">certkeypair/kube&#45;apiserver&#45;to&#45;kubelet&#45;client</text>
<text text-anchor="middle" x="2463.85" y="-153.76" font-family="Times,serif" font-size="14.00">secret/kubelet&#45;client &#45;nopenshift&#45;kube&#45;apiserver</text>
<text text-anchor="middle" x="2463.85" y="-138.76" font-family="Times,serif" font-size="14.00"> &#160;&#160;&#160;file:///etc/kubernetes/static&#45;pod&#45;resources/kube&#45;apiserver&#45;certs/secrets/kubelet&#45;client/tls.crt/tls.crt,file:///etc/kubernetes/static&#45;pod&#45;resources/kube&#45;apiserver&#45;certs/secrets/kubelet&#45;client/tls.crt/tls.key</text>
</g>
<!-- 2&#45;&gt;3 -->
<g id="edge11" class="edge">
<title>2&#45;&gt;3</title>
<path fill="none" stroke="black" d="M3845.93,-393.32C3795.74,-383.7 3739.58,-373.86 3687.85,-366.93 3492.07,-340.66 3440.34,-359.34 3244.85,-330.93 3044.39,-301.79 2818.2,-252.3 2661.02,-215.2"/>
<polygon fill="black" stroke="black" points="2661.78,-211.79 2651.24,-212.89 2660.17,-218.6 2661.78,-211.79"/>
</g>
<!-- 2&#45;&gt;16 -->
<g id="edge12" class="edge">
<title>2&#45;&gt;16</title>
<path fill="none" stroke="black" d="M4165.31,-394.39C4223.25,-384.47 4288.76,-374.18 4348.85,-366.93 4560.8,-341.33 4625,-397.46 4827.85,-330.93 4908.07,-304.61 4988.67,-248.85 5039.1,-209.58"/>
<polygon fill="black" stroke="black" points="5041.54,-212.11 5047.24,-203.18 5037.21,-206.61 5041.54,-212.11"/>
</g>
<!-- 18 -->
<g id="node19" class="node">
<title>18</title>
<ellipse fill="#fda172" stroke="black" cx="1338.85" cy="-165.46" rx="335.34" ry="38.37"/>
<text text-anchor="middle" x="1338.85" y="-177.26" font-family="Times,serif" font-size="14.00">cabundle/kubelet&#45;to&#45;recognize&#45;kube&#45;apiserver&#45;client&#45;ca</text>
<text text-anchor="middle" x="1338.85" y="-146.26" font-family="Times,serif" font-size="14.00">configmaps/kube&#45;apiserver&#45;to&#45;kubelet&#45;client&#45;ca &#45;nopenshift&#45;kube&#45;apiserver&#45;operator</text>
</g>
<!-- 2&#45;&gt;18 -->
<g id="edge13" class="edge">
<title>2&#45;&gt;18</title>
<path fill="none" stroke="black" d="M3853.25,-392.76C3801.32,-382.54 3742.23,-372.48 3687.85,-366.93 3466.3,-344.3 1900.62,-382 1683.85,-330.93 1580.79,-306.64 1472.15,-248.72 1404.94,-208.54"/>
<polygon fill="black" stroke="black" points="1406.52,-205.4 1396.14,-203.24 1402.9,-211.4 1406.52,-205.4"/>
</g>
<!-- 2&#45;&gt;21 -->
<g id="edge14" class="edge">
<title>2&#45;&gt;21</title>
<path fill="none" stroke="black" d="M4045.93,-388.51C4088.46,-355.25 4152.9,-304.85 4209.65,-260.47"/>
<polygon fill="black" stroke="black" points="4211.88,-263.17 4217.6,-254.25 4207.57,-257.65 4211.88,-263.17"/>
</g>
<!-- 4 -->
<g id="node5" class="node">
<title>4</title>
<ellipse fill="#c7bfff" stroke="black" cx="8966.85" cy="-426.32" rx="277.37" ry="38.37"/>
<text text-anchor="middle" x="8966.85" y="-438.12" font-family="Times,serif" font-size="14.00">certkeypair/kube&#45;control&#45;plane&#45;signer</text>
<text text-anchor="middle" x="8966.85" y="-407.12" font-family="Times,serif" font-size="14.00">secret/kube&#45;control&#45;plane&#45;signer &#45;nopenshift&#45;kube&#45;apiserver&#45;operator</text>
</g>
<!-- 5 -->
<g id="node6" class="node">
<title>5</title>
<ellipse fill="#c8fbcd" stroke="black" cx="11517.85" cy="-165.46" rx="909.18" ry="48.58"/>
<text text-anchor="middle" x="11517.85" y="-184.76" font-family="Times,serif" font-size="14.00">certkeypair/kube&#45;apiserver&#45;check&#45;endpoints</text>
<text text-anchor="middle" x="11517.85" y="-153.76" font-family="Times,serif" font-size="14.00">secret/check&#45;endpoints&#45;client&#45;cert&#45;key &#45;nopenshift&#45;kube&#45;apiserver</text>
<text text-anchor="middle" x="11517.85" y="-138.76" font-family="Times,serif" font-size="14.00"> &#160;&#160;&#160;file:///etc/kubernetes/static&#45;pod&#45;resources/kube&#45;apiserver&#45;certs/secrets/check&#45;endpoints&#45;client&#45;cert&#45;key/tls.crt/tls.crt,file:///etc/kubernetes/static&#45;pod&#45;resources/kube&#45;apiserver&#45;certs/secrets/check&#45;endpoints&#45;client&#45;cert&#45;key/tls.crt/tls.key</text>
</g>
<!-- 4&#45;&gt;5 -->
<g id="edge15" class="edge">
<title>4&#45;&gt;5</title>
<path fill="none" stroke="black" d="M9239.69,-419.51C9564.64,-410.29 10123.41,-387.17 10599.85,-330.93 10837.2,-302.91 11106.04,-252.52 11291.15,-214.88"/>
<polygon fill="black" stroke="black" points="11291.91,-218.3 11301.01,-212.87 11290.51,-211.44 11291.91,-218.3"/>
</g>
<!-- 6 -->
<g id="node7" class="node">
<title>6</title>
<ellipse fill="#c8fbcd" stroke="black" cx="13348.85" cy="-165.46" rx="903.86" ry="59.29"/>
<text text-anchor="middle" x="13348.85" y="-192.26" font-family="Times,serif" font-size="14.00">certkeypair/kube&#45;scheduler&#45;client</text>
<text text-anchor="middle" x="13348.85" y="-161.26" font-family="Times,serif" font-size="14.00">secret/kube&#45;scheduler&#45;client&#45;cert&#45;key &#45;nopenshift&#45;config&#45;managed</text>
<text text-anchor="middle" x="13348.85" y="-146.26" font-family="Times,serif" font-size="14.00"> &#160;&#160;&#160;secret/kube&#45;scheduler&#45;client&#45;cert&#45;key &#45;nopenshift&#45;kube&#45;scheduler</text>
<text text-anchor="middle" x="13348.85" y="-131.26" font-family="Times,serif" font-size="14.00"> &#160;&#160;&#160;file:///etc/kubernetes/static&#45;pod&#45;resources/kube&#45;scheduler&#45;certs/secrets/kube&#45;scheduler&#45;client&#45;cert&#45;key/tls.crt/tls.crt,file:///etc/kubernetes/static&#45;pod&#45;resources/kube&#45;scheduler&#45;certs/secrets/kube&#45;scheduler&#45;client&#45;cert&#45;key/tls.crt/tls.key</text>
</g>
<!-- 4&#45;&gt;6 -->
<g id="edge16" class="edge">
<title>4&#45;&gt;6</title>
<path fill="none" stroke="black" d="M9243.13,-423.19C9951.31,-416.87 11819.04,-394.51 12435.85,-330.93 12656.88,-308.14 12904.84,-262.15 13086.51,-224.58"/>
<polygon fill="black" stroke="black" points="13087.39,-227.98 13096.47,-222.52 13085.97,-221.12 13087.39,-227.98"/>
</g>
<!-- 7 -->
<g id="node8" class="node">
<title>7</title>
<ellipse fill="#c8fbcd" stroke="black" cx="6912.85" cy="-165.46" rx="1052.35" ry="59.29"/>
<text text-anchor="middle" x="6912.85" y="-192.26" font-family="Times,serif" font-size="14.00">certkeypair/kube&#45;controller&#45;manager&#45;client</text>
<text text-anchor="middle" x="6912.85" y="-161.26" font-family="Times,serif" font-size="14.00">secret/kube&#45;controller&#45;manager&#45;client&#45;cert&#45;key &#45;nopenshift&#45;config&#45;managed</text>
<text text-anchor="middle" x="6912.85" y="-146.26" font-family="Times,serif" font-size="14.00"> &#160;&#160;&#160;secret/kube&#45;controller&#45;manager&#45;client&#45;cert&#45;key &#45;nopenshift&#45;kube&#45;controller&#45;manager</text>
<text text-anchor="middle" x="6912.85" y="-131.26" font-family="Times,serif" font-size="14.00"> &#160;&#160;&#160;file:///etc/kubernetes/static&#45;pod&#45;resources/kube&#45;controller&#45;manager&#45;certs/secrets/kube&#45;controller&#45;manager&#45;client&#45;cert&#45;key/tls.crt/tls.crt,file:///etc/kubernetes/static&#45;pod&#45;resources/kube&#45;controller&#45;manager&#45;certs/secrets/kube&#45;controller&#45;manager&#45;client&#45;cert&#45;key/tls.crt/tls.key</text>
</g>
<!-- 4&#45;&gt;7 -->
<g id="edge17" class="edge">
<title>4&#45;&gt;7</title>
<path fill="none" stroke="black" d="M8728.92,-406.67C8527.49,-389.93 8231.29,-363.09 7973.85,-330.93 7730.22,-300.49 7456.4,-257.83 7247.97,-223.59"/>
<polygon fill="black" stroke="black" points="7248.53,-220.14 7238.09,-221.97 7247.39,-227.04 7248.53,-220.14"/>
</g>
<!-- 8 -->
<g id="node9" class="node">
<title>8</title>
<ellipse fill="#c8fbcd" stroke="black" cx="8966.85" cy="-165.46" rx="984.09" ry="48.58"/>
<text text-anchor="middle" x="8966.85" y="-184.76" font-family="Times,serif" font-size="14.00">certkeypair/system:control&#45;plane&#45;node&#45;admin::182205478911801730</text>
<text text-anchor="middle" x="8966.85" y="-153.76" font-family="Times,serif" font-size="14.00">secret/control&#45;plane&#45;node&#45;admin&#45;client&#45;cert&#45;key &#45;nopenshift&#45;kube&#45;apiserver</text>
<text text-anchor="middle" x="8966.85" y="-138.76" font-family="Times,serif" font-size="14.00"> &#160;&#160;&#160;file:///etc/kubernetes/static&#45;pod&#45;resources/kube&#45;apiserver&#45;certs/secrets/control&#45;plane&#45;node&#45;admin&#45;client&#45;cert&#45;key/tls.crt/tls.crt,file:///etc/kubernetes/static&#45;pod&#45;resources/kube&#45;apiserver&#45;certs/secrets/control&#45;plane&#45;node&#45;admin&#45;client&#45;cert&#45;key/tls.crt/tls.key</text>
</g>
<!-- 4&#45;&gt;8 -->
<g id="edge18" class="edge">
<title>4&#45;&gt;8</title>
<path fill="none" stroke="black" d="M8966.85,-387.96C8966.85,-345.13 8966.85,-274.4 8966.85,-224.41"/>
<polygon fill="black" stroke="black" points="8970.35,-224.39 8966.85,-214.39 8963.35,-224.39 8970.35,-224.39"/>
</g>
<!-- 4&#45;&gt;16 -->
<g id="edge19" class="edge">
<title>4&#45;&gt;16</title>
<path fill="none" stroke="black" d="M8704.03,-414.16C8388.61,-401.1 7843.66,-379.67 7375.85,-366.93 7263.54,-363.87 5461.57,-362.87 5353.85,-330.93 5272.42,-306.78 5191.5,-249.96 5141.37,-209.89"/>
<polygon fill="black" stroke="black" points="5143.27,-206.93 5133.29,-203.36 5138.87,-212.37 5143.27,-206.93"/>
</g>
<!-- 19 -->
<g id="node20" class="node">
<title>19</title>
<ellipse fill="#fda172" stroke="black" cx="10279.85" cy="-165.46" rx="311.25" ry="38.37"/>
<text text-anchor="middle" x="10279.85" y="-177.26" font-family="Times,serif" font-size="14.00">cabundle/kube&#45;apiserver&#45;kcm&#45;and&#45;ks&#45;client&#45;ca</text>
<text text-anchor="middle" x="10279.85" y="-146.26" font-family="Times,serif" font-size="14.00">configmaps/kube&#45;control&#45;plane&#45;signer&#45;ca &#45;nopenshift&#45;kube&#45;apiserver&#45;operator</text>
</g>
<!-- 4&#45;&gt;19 -->
<g id="edge20" class="edge">
<title>4&#45;&gt;19</title>
<path fill="none" stroke="black" d="M9223.79,-411.94C9471.13,-397.07 9826.69,-369.91 9959.85,-330.93 10054.32,-303.27 10153.75,-247.34 10216.23,-208.43"/>
<polygon fill="black" stroke="black" points="10218.18,-211.34 10224.79,-203.06 10214.46,-205.41 10218.18,-211.34"/>
</g>
<!-- 4&#45;&gt;21 -->
<g id="edge21" class="edge">
<title>4&#45;&gt;21</title>
<path fill="none" stroke="black" d="M8704.74,-413.89C8389.43,-400.55 7844.03,-378.82 7375.85,-366.93 7092.81,-359.73 5107.07,-377.86 4827.85,-330.93 4731.47,-314.72 4628.36,-283.19 4541.11,-252.04"/>
<polygon fill="black" stroke="black" points="4542.23,-248.72 4531.64,-248.64 4539.87,-255.31 4542.23,-248.72"/>
</g>
<!-- 9 -->
<g id="node10" class="node">
<title>9</title>
<ellipse fill="#c7bfff" stroke="black" cx="5057.85" cy="-426.32" rx="250.13" ry="38.37"/>
<text text-anchor="middle" x="5057.85" y="-438.12" font-family="Times,serif" font-size="14.00">certkeypair/admin&#45;kubeconfig&#45;signer::7981521128360560540</text>
<text text-anchor="middle" x="5057.85" y="-407.12" font-family="Times,serif" font-size="14.00">file:///etc/kubernetes/kubelet&#45;ca.crt/kubelet&#45;ca.crt,file://</text>
</g>
<!-- 9&#45;&gt;16 -->
<g id="edge22" class="edge">
<title>9&#45;&gt;16</title>
<path fill="none" stroke="black" d="M5062.62,-387.96C5068.48,-341.98 5078.44,-263.87 5084.82,-213.76"/>
<polygon fill="black" stroke="black" points="5088.3,-214.18 5086.09,-203.82 5081.36,-213.29 5088.3,-214.18"/>
</g>
<!-- 20 -->
<g id="node21" class="node">
<title>20</title>
<ellipse fill="#fda172" stroke="black" cx="5602.85" cy="-165.46" rx="239.92" ry="38.37"/>
<text text-anchor="middle" x="5602.85" y="-177.26" font-family="Times,serif" font-size="14.00">cabundle/kube&#45;apiserver&#45;admin&#45;kubeconfig&#45;client&#45;ca</text>
<text text-anchor="middle" x="5602.85" y="-146.26" font-family="Times,serif" font-size="14.00">configmaps/admin&#45;kubeconfig&#45;client&#45;ca &#45;nopenshift&#45;config</text>
</g>
<!-- 9&#45;&gt;20 -->
<g id="edge23" class="edge">
<title>9&#45;&gt;20</title>
<path fill="none" stroke="black" d="M5184.28,-393.33C5237.87,-377.66 5300.21,-356.59 5353.85,-330.93 5424.76,-297 5499.08,-245.52 5547.86,-209.21"/>
<polygon fill="black" stroke="black" points="5550.16,-211.86 5556.07,-203.07 5545.96,-206.26 5550.16,-211.86"/>
</g>
<!-- 9&#45;&gt;21 -->
<g id="edge24" class="edge">
<title>9&#45;&gt;21</title>
<path fill="none" stroke="black" d="M4961.18,-390.95C4860.52,-355.16 4699.07,-297.75 4564.64,-249.95"/>
<polygon fill="black" stroke="black" points="4565.61,-246.58 4555.01,-246.52 4563.26,-253.17 4565.61,-246.58"/>
</g>
<!-- 12&#45;&gt;21 -->
<g id="edge25" class="edge">
<title>12&#45;&gt;21</title>
<path fill="none" stroke="black" d="M3470.97,-386.73C3591.01,-373.31 3715.46,-355.24 3830.85,-330.93 3923.44,-311.42 4022.93,-280.72 4108.53,-251.09"/>
<polygon fill="black" stroke="black" points="4109.8,-254.36 4118.09,-247.77 4107.5,-247.75 4109.8,-254.36"/>
</g>
<!-- 12&#45;&gt;23 -->
<g id="edge26" class="edge">
<title>12&#45;&gt;23</title>
<path fill="none" stroke="black" d="M2298.82,-383.03C2209.55,-377.09 2118.2,-371.47 2031.85,-366.93 1801.59,-354.81 1221.89,-371.22 994.85,-330.93 941.29,-321.42 885.6,-307.49 831.65,-291.7"/>
<polygon fill="black" stroke="black" points="832.53,-288.31 821.95,-288.83 830.55,-295.02 832.53,-288.31"/>
</g>
<!-- 13 -->
<g id="node14" class="node">
<title>13</title>
<ellipse fill="#c7bfff" stroke="black" cx="14548.85" cy="-426.32" rx="280.94" ry="38.37"/>
<text text-anchor="middle" x="14548.85" y="-438.12" font-family="Times,serif" font-size="14.00">certkeypair/per&#45;master&#45;debugging&#45;signer</text>
<text text-anchor="middle" x="14548.85" y="-407.12" font-family="Times,serif" font-size="14.00">secret/node&#45;system&#45;admin&#45;signer &#45;nopenshift&#45;kube&#45;apiserver&#45;operator</text>
</g>
<!-- 14 -->
<g id="node15" class="node">
<title>14</title>
<ellipse fill="#c8fbcd" stroke="black" cx="14548.85" cy="-165.46" rx="278.7" ry="38.37"/>
<text text-anchor="middle" x="14548.85" y="-177.26" font-family="Times,serif" font-size="14.00">certkeypair/per&#45;master&#45;debugging&#45;client</text>
<text text-anchor="middle" x="14548.85" y="-146.26" font-family="Times,serif" font-size="14.00">secret/node&#45;system&#45;admin&#45;client &#45;nopenshift&#45;kube&#45;apiserver&#45;operator</text>
</g>
<!-- 13&#45;&gt;14 -->
<g id="edge27" class="edge">
<title>13&#45;&gt;14</title>
<path fill="none" stroke="black" d="M14548.85,-387.96C14548.85,-342.08 14548.85,-264.2 14548.85,-214.07"/>
<polygon fill="black" stroke="black" points="14552.35,-213.82 14548.85,-203.82 14545.35,-213.82 14552.35,-213.82"/>
</g>
<!-- 13&#45;&gt;21 -->
<g id="edge28" class="edge">
<title>13&#45;&gt;21</title>
<path fill="none" stroke="black" d="M14269.66,-421.96C13481.43,-412.53 11171.65,-385.31 9252.85,-366.93 9007.02,-364.57 5070.41,-370.96 4827.85,-330.93 4731.21,-314.98 4627.84,-283.39 4540.48,-252.12"/>
<polygon fill="black" stroke="black" points="4541.59,-248.8 4530.99,-248.71 4539.21,-255.39 4541.59,-248.8"/>
</g>
<!-- 22 -->
<g id="node23" class="node">
<title>22</title>
<ellipse fill="#fda172" stroke="black" cx="15133.85" cy="-165.46" rx="288.5" ry="38.37"/>
<text text-anchor="middle" x="15133.85" y="-177.26" font-family="Times,serif" font-size="14.00">cabundle/kube&#45;apiserver&#45;per&#45;master&#45;debugging&#45;client&#45;ca</text>
<text text-anchor="middle" x="15133.85" y="-146.26" font-family="Times,serif" font-size="14.00">configmaps/node&#45;system&#45;admin&#45;ca &#45;nopenshift&#45;kube&#45;apiserver&#45;operator</text>
</g>
<!-- 13&#45;&gt;22 -->
<g id="edge29" class="edge">
<title>13&#45;&gt;22</title>
<path fill="none" stroke="black" d="M14668.44,-391.68C14720.96,-375.5 14782.84,-354.48 14836.85,-330.93 14918.82,-295.18 15007.94,-244.04 15066.95,-208.31"/>
<polygon fill="black" stroke="black" points="15069.07,-211.12 15075.8,-202.93 15065.43,-205.14 15069.07,-211.12"/>
</g>
</g>
</svg>
